<?xml version="1.0" standalone="no"?>
<!DOCTYPE svg PUBLIC "-//W3C//DTD SVG 20010904//EN"
 "http://www.w3.org/TR/2001/REC-SVG-20010904/DTD/svg10.dtd">
<svg version="1.0" xmlns="http://www.w3.org/2000/svg"
 width="612.000000pt" height="408.000000pt" viewBox="0 0 612.000000 408.000000"
 preserveAspectRatio="xMidYMid meet">

<g transform="translate(0.000000,408.000000) scale(0.100000,-0.100000)"
fill="#000000" stroke="none">
<path d="M3036 3648 c-21 -34 -29 -123 -15 -182 8 -38 8 -62 0 -93 -13 -47
-26 -57 -86 -68 -94 -16 -188 -55 -273 -113 l-53 -36 -35 19 c-20 11 -46 32
-57 48 -54 71 -90 106 -130 127 -46 25 -77 22 -77 -6 0 -25 76 -121 108 -138
30 -16 70 -57 97 -99 17 -27 17 -28 -18 -80 -40 -62 -72 -122 -81 -157 -4 -14
10 7 31 45 73 134 123 192 229 268 189 135 464 156 679 52 171 -84 315 -256
361 -433 22 -83 28 -216 14 -287 -20 -99 -23 -120 -14 -112 4 4 15 45 24 90
l16 82 44 8 c25 4 63 5 85 2 111 -17 215 -4 215 27 0 9 -3 9 -12 0 -15 -15
-32 -16 -23 -2 15 24 -128 43 -151 20 -12 -12 -138 -20 -155 -9 -6 4 -9 14 -6
23 7 18 32 22 42 6 3 -5 30 -7 63 -3 97 10 196 7 222 -6 24 -13 24 -13 7 5
-16 17 -32 19 -152 17 -74 -2 -145 1 -158 6 -20 8 -26 22 -40 89 -18 90 -61
193 -113 268 l-36 52 25 39 c14 22 40 51 58 64 49 36 112 102 128 131 16 32 9
58 -17 58 -31 0 -113 -61 -149 -111 -37 -52 -93 -99 -117 -99 -9 0 -38 16 -66
36 -59 42 -203 101 -270 110 -76 10 -75 8 -76 146 0 170 -2 184 -20 202 -21
22 -31 20 -48 -6z m44 -13 c14 -37 15 -124 2 -137 -31 -31 -65 77 -43 135 13
34 29 35 41 2z m0 -212 c-1 -44 -2 -47 -15 -29 -25 33 -19 65 13 75 1 1 2 -20
2 -46z m-35 -73 c3 -5 1 -10 -4 -10 -6 0 -11 5 -11 10 0 6 2 10 4 10 3 0 8 -4
11 -10z m745 -14 c0 -26 -79 -106 -105 -106 -8 0 -29 -16 -47 -36 -48 -53 -87
-79 -100 -66 -11 11 11 42 29 42 15 0 83 69 83 84 0 8 21 32 48 54 69 57 92
64 92 28z m-1313 -89 c8 -16 27 -40 41 -53 l27 -23 -33 -1 c-22 0 -34 5 -39
18 -17 52 -48 104 -74 126 -16 14 -29 28 -29 31 0 14 92 -71 107 -98z m-43
-28 c17 -10 26 -19 19 -19 -16 0 -83 59 -83 73 0 6 7 1 16 -12 9 -12 30 -31
48 -42z m109 -110 c4 -16 3 -18 -9 -8 -16 13 -19 29 -5 29 5 0 11 -9 14 -21z"/>
<path d="M2960 3280 c-163 -21 -323 -118 -436 -265 -63 -81 -99 -170 -119
-300 -15 -97 -8 -198 20 -284 18 -53 19 -69 5 -55 -40 40 -60 306 -31 407 8
26 11 50 8 53 -3 3 -14 -31 -23 -76 -21 -95 -27 -100 -127 -100 -47 0 -58 -3
-47 -11 12 -9 11 -10 -7 -6 -34 7 -157 -10 -161 -22 -2 -6 -8 -9 -13 -5 -5 3
-9 1 -9 -5 0 -22 47 -34 125 -32 44 1 106 2 138 3 38 1 62 -3 72 -13 12 -12
43 -127 48 -179 2 -13 -53 -16 -423 -20 l-425 -5 -62 -123 c-41 -81 -63 -136
-63 -158 0 -30 -5 -37 -35 -50 -19 -8 -57 -19 -85 -25 -27 -6 -50 -14 -50 -17
0 -4 23 -22 50 -41 28 -19 50 -36 50 -38 0 -20 -64 -123 -80 -128 -14 -5 -42
-49 -87 -141 -36 -74 -64 -136 -62 -138 2 -1 96 -58 209 -126 l204 -123 96 13
c52 6 136 18 185 26 163 25 405 54 449 54 l43 0 53 -87 c121 -200 414 -429
637 -500 64 -20 89 -14 238 60 230 114 420 285 527 475 l30 52 51 0 c49 -1
204 -20 562 -70 l160 -23 195 117 c107 64 201 123 208 130 11 11 -2 45 -77
199 -50 102 -91 190 -91 196 0 5 39 28 86 50 48 23 84 44 82 47 -3 2 -56 13
-118 24 -63 11 -117 25 -122 32 -4 7 -8 25 -8 41 0 27 -110 260 -128 271 -5 3
-215 6 -466 6 -251 1 -456 5 -456 9 0 5 6 26 14 47 28 82 37 193 22 290 -57
371 -382 613 -756 564z m261 -190 c142 -52 234 -138 295 -277 31 -73 34 -85
34 -184 0 -90 -4 -117 -26 -175 -14 -38 -30 -73 -36 -79 -13 -12 -9 2 23 90
97 267 -71 568 -349 626 -76 15 -203 6 -272 -20 -68 -26 -165 -95 -203 -144
-39 -52 -82 -143 -97 -206 -16 -70 -8 -181 19 -256 12 -33 24 -69 28 -80 l5
-20 -14 20 c-38 54 -58 136 -58 242 0 94 3 112 30 176 60 143 155 235 295 286
113 42 213 42 326 1z m-82 -45 c109 -14 244 -111 300 -216 68 -129 67 -294 -4
-414 l-26 -45 -66 0 c-48 0 -72 5 -85 17 -17 15 -18 15 -18 0 0 -12 -9 -17
-30 -17 -29 0 -30 2 -30 43 0 28 -3 37 -9 28 -13 -20 -29 -5 -37 35 -6 33 -7
34 -20 15 -8 -11 -17 -34 -21 -52 -5 -27 -4 -31 10 -26 11 4 20 -1 27 -13 15
-28 13 -32 -22 -28 -30 3 -33 6 -36 42 -7 80 46 156 107 156 12 0 21 4 21 10
0 15 -66 77 -89 83 -21 5 -29 -7 -11 -18 21 -13 9 -45 -22 -61 -18 -9 -68 -53
-112 -97 -71 -73 -80 -79 -92 -63 -10 15 -9 27 7 74 23 65 20 123 -7 153 -9
10 -12 19 -6 19 6 0 19 -14 28 -31 16 -31 15 -88 -1 -151 -11 -43 16 -36 57
15 20 23 58 58 87 77 28 19 50 41 49 49 -5 27 -91 60 -167 65 -63 4 -74 2 -91
-17 -11 -11 -20 -30 -20 -41 -1 -21 -1 -21 -16 -1 -24 31 -14 132 15 156 31
26 66 24 78 -3 5 -12 19 -22 31 -23 17 -1 19 1 10 12 -8 10 -13 11 -18 3 -5
-8 -9 -6 -14 5 -9 23 0 34 24 28 12 -3 24 -19 29 -37 l9 -31 1 41 c1 27 6 44
15 47 11 4 13 1 9 -10 -5 -12 -2 -14 18 -7 44 16 133 9 195 -16 61 -25 174
-89 209 -120 43 -37 47 -35 39 16 -15 108 -109 231 -214 282 -50 24 -66 27
-170 27 -105 0 -120 -2 -170 -27 -72 -35 -152 -118 -186 -191 -38 -85 -44
-199 -14 -287 12 -35 30 -76 41 -91 24 -35 24 -41 -2 -37 -45 7 -99 145 -99
253 0 157 89 303 230 380 51 27 175 57 210 50 8 -2 39 -7 69 -10z m9 -79 c93
-25 158 -73 216 -160 35 -53 33 -60 -11 -33 -104 64 -233 104 -300 94 -18 -3
-33 -2 -33 4 0 15 -33 10 -67 -11 -18 -11 -39 -17 -47 -14 -21 8 -90 -13 -119
-37 -35 -27 -51 -87 -37 -138 19 -73 97 -128 86 -61 -6 38 8 47 28 18 20 -28
20 -73 1 -128 -20 -58 -19 -87 5 -102 30 -19 24 -28 -19 -28 -33 0 -44 6 -70
38 -71 84 -92 234 -51 344 62 165 247 259 418 214z m-780 -324 c2 -7 -6 -12
-17 -12 -21 0 -27 11 -14 24 9 9 26 2 31 -12z m-48 -7 c0 -16 -44 -21 -77 -8
-14 6 -11 9 17 14 56 10 60 10 60 -6z m170 -10 c0 -8 -4 -15 -10 -15 -5 0 -10
7 -10 15 0 8 5 15 10 15 6 0 10 -7 10 -15z m500 -64 c-41 -38 -76 -68 -77 -67
-1 1 2 19 8 40 6 20 8 52 5 69 -6 32 -6 32 7 6 7 -16 18 -24 27 -21 12 4 13 2
3 -9 -7 -7 -13 -17 -13 -22 0 -9 93 62 99 76 1 5 6 6 9 2 3 -3 -27 -37 -68
-74z m660 64 c0 -8 -4 -15 -10 -15 -5 0 -10 7 -10 15 0 8 5 15 10 15 6 0 10
-7 10 -15z m-1293 -31 c-3 -3 -12 -4 -19 -1 -8 3 -5 6 6 6 11 1 17 -2 13 -5z
m617 -196 c6 -26 4 -28 -23 -28 -16 0 -33 5 -36 10 -8 13 14 42 25 35 5 -3 12
0 15 6 9 13 11 11 19 -23z m70 -4 c9 -22 8 -24 -9 -24 -8 0 -15 9 -15 20 0 24
15 27 24 4z m-991 -81 c3 -5 -4 -35 -14 -68 -11 -33 -25 -77 -31 -98 -14 -47
-36 -57 -119 -57 l-61 0 4 38 3 37 -43 3 -43 3 -24 -56 c-14 -30 -25 -61 -25
-67 0 -7 26 -9 80 -6 44 3 80 3 80 2 0 -1 -12 -30 -26 -62 l-26 -60 -61 -7
c-117 -12 -117 -12 -145 -74 -15 -31 -28 -59 -30 -63 -2 -5 17 -8 43 -8 48 0
64 11 110 73 18 25 27 28 108 34 51 3 87 2 87 -3 0 -13 -87 -205 -97 -215 -4
-4 -71 -15 -148 -24 -136 -16 -175 -21 -358 -45 -49 -7 -90 -10 -92 -8 -10 9
68 145 91 158 24 14 104 158 104 187 0 7 -9 17 -20 23 -29 16 -25 27 14 34 41
8 48 16 87 96 22 45 27 65 19 70 -9 5 -3 27 20 76 18 38 37 75 43 82 7 9 67
12 238 12 125 0 230 -3 232 -7z m593 -55 c-3 -35 -10 -85 -14 -113 l-7 -50
-65 0 -65 0 -3 42 c-3 38 -24 64 -36 45 -5 -8 -86 -335 -86 -346 0 -3 8 -6 18
-6 17 0 17 -4 3 -64 l-15 -65 -60 -5 c-114 -10 -266 -18 -266 -13 0 6 19 66
32 100 6 16 20 32 31 36 20 7 27 27 103 275 13 44 22 81 20 84 -13 12 -44 -13
-65 -53 l-24 -45 -63 0 -63 0 35 83 c20 45 43 99 51 120 l15 37 265 0 266 0
-7 -62z m273 -50 l-4 -113 55 0 55 0 5 110 5 110 113 3 c126 3 118 8 125 -77
4 -47 2 -54 -15 -59 -14 -3 -18 -11 -15 -26 3 -11 9 -85 12 -163 7 -135 9
-142 29 -145 18 -3 21 -11 24 -65 l3 -63 -147 0 -147 0 6 120 5 120 -63 0 -62
0 -7 -46 c-3 -26 -6 -79 -6 -119 l0 -72 -97 -6 c-54 -4 -120 -7 -147 -7 l-49
0 7 63 c3 34 11 64 16 65 33 12 40 34 71 251 10 69 9 85 -2 91 -15 10 -14 76
2 117 8 22 12 23 120 23 l111 0 -3 -112z m954 -135 c97 -195 128 -249 145
-251 15 -2 26 -18 41 -65 12 -33 21 -64 21 -69 0 -7 -173 -2 -236 8 -26 4 -33
11 -48 53 -26 74 -33 80 -108 87 l-68 7 0 -68 0 -68 -130 5 c-72 3 -132 7
-134 9 -2 2 -7 32 -11 66 -7 59 -6 61 17 65 21 3 24 10 29 68 4 36 14 137 23
225 9 88 16 163 16 168 0 4 72 7 160 7 l159 0 124 -247z m463 125 c170 -238
283 -386 262 -343 -56 109 -208 443 -208 455 0 7 30 10 92 8 l91 -3 41 -78
c32 -63 37 -80 26 -87 -11 -7 -7 -21 19 -72 44 -84 47 -86 111 -96 l55 -8 -42
-22 c-24 -12 -43 -26 -43 -30 0 -4 36 -79 79 -167 44 -87 78 -162 76 -165 -2
-4 -30 -3 -62 1 -32 4 -96 12 -143 18 -143 19 -133 13 -212 119 -95 128 -119
160 -211 292 -43 61 -81 109 -84 106 -4 -4 109 -289 173 -435 8 -18 13 -35 11
-37 -2 -3 -35 0 -73 6 -38 5 -90 10 -116 10 -51 0 -63 11 -79 75 -4 16 -11 41
-15 54 -6 20 -4 23 9 18 10 -4 17 -3 17 1 0 4 -25 85 -57 180 -44 131 -61 172
-74 172 -16 0 -23 13 -48 91 -19 61 -25 59 153 59 l164 0 88 -122z m-1731
-684 c-6 -37 -41 -65 -51 -41 -6 17 12 66 34 91 16 17 17 17 20 1 2 -9 1 -32
-3 -51z m952 9 c17 -42 17 -63 -2 -63 -19 0 -45 51 -45 91 0 28 2 30 17 18 9
-8 22 -28 30 -46z m-1023 -65 c9 -12 16 -38 16 -58 l-1 -35 -24 28 c-15 16
-25 40 -25 58 0 35 13 37 34 7z m1086 -5 c0 -16 -12 -41 -26 -58 l-25 -30 4
43 c8 64 47 102 47 45z m-980 2 c0 -28 -50 -85 -75 -85 -12 0 7 45 28 68 19
20 47 30 47 17z m878 -11 c22 -15 47 -62 38 -71 -9 -10 -47 19 -61 47 -24 45
-17 52 23 24z m-913 -150 c-8 -13 -20 -24 -25 -24 -19 0 -10 57 13 86 l22 29
3 -33 c2 -19 -4 -44 -13 -58z m945 5 c0 -16 -4 -29 -9 -29 -18 0 -41 45 -41
80 l1 35 24 -28 c15 -16 25 -40 25 -58z m-1019 30 c21 -24 34 -58 25 -66 -11
-11 -54 27 -64 56 -9 26 -8 31 5 31 9 0 24 -10 34 -21z m349 -4 c0 -16 -6 -25
-15 -25 -8 0 -15 5 -15 10 0 6 -4 10 -10 10 -5 0 -10 -7 -10 -15 0 -8 5 -15
10 -15 6 0 10 -7 10 -15 0 -8 -4 -15 -10 -15 -5 0 -10 -7 -10 -15 0 -17 16
-20 25 -5 11 18 25 10 25 -13 0 -22 -4 -24 -45 -23 l-45 1 0 73 0 72 45 0 c41
0 45 -2 45 -25z m114 19 c20 -8 21 -44 2 -44 -8 0 -18 5 -21 10 -11 19 -25 -1
-25 -35 0 -34 14 -54 25 -35 11 17 35 11 35 -9 0 -24 -54 -39 -75 -21 -18 15
-20 111 -3 128 13 13 37 15 62 6z m134 -6 c7 -7 12 -36 12 -65 0 -46 -3 -55
-22 -62 -13 -5 -30 -7 -38 -5 -8 1 -18 3 -22 3 -10 1 -11 125 -1 134 11 11 58
8 71 -5z m101 -13 c2 -11 10 -29 17 -40 13 -18 15 -17 31 23 11 25 25 42 35
42 13 0 17 -13 20 -70 3 -68 2 -70 -21 -70 -18 0 -22 4 -18 20 3 11 2 20 -3
20 -4 0 -10 -9 -13 -20 -7 -29 -34 -25 -46 8 l-11 27 5 -26 c5 -25 -8 -39 -35
-39 -5 0 -9 34 -9 76 0 71 2 75 22 72 12 -2 23 -12 26 -23z m404 8 c-13 -34
-34 -61 -53 -66 -23 -6 -25 5 -9 36 18 33 33 46 51 47 12 0 16 -5 11 -17z
m-994 -132 c-6 -17 -15 -31 -19 -31 -16 0 -22 61 -9 93 l13 31 13 -31 c9 -24
10 -39 2 -62z m876 3 c-7 -42 -20 -43 -34 -4 -7 21 -7 39 1 61 l11 32 14 -28
c10 -17 12 -40 8 -61z m-938 -3 c33 -23 30 -45 -4 -37 -28 7 -63 39 -63 58 0
12 38 0 67 -21z m1033 20 c0 -18 -36 -50 -62 -57 -52 -12 -28 31 32 58 21 9
30 9 30 -1z m-924 -38 c18 -24 18 -81 0 -99 -8 -8 -26 -14 -40 -14 -29 0 -76
19 -76 32 0 15 67 12 88 -4 20 -17 26 -1 8 24 -16 23 -21 59 -9 71 10 10 15 9
29 -10z m784 -15 c0 -22 -30 -78 -42 -78 -14 0 -8 65 8 88 17 25 34 21 34 -10z
m-717 -50 c32 -29 47 -78 23 -78 -18 0 -56 56 -56 83 0 22 2 22 33 -5z m630
-41 c-11 -17 -27 -34 -37 -35 -16 -3 -18 0 -12 25 9 36 59 83 64 59 2 -9 -5
-31 -15 -49z m155 34 c19 -12 -29 -41 -68 -41 -41 0 -35 21 11 37 42 15 41 15
57 4z m-679 -47 c27 -22 42 -54 26 -54 -28 0 -85 50 -85 74 0 14 31 4 59 -20z
m461 20 c0 -24 -57 -74 -85 -74 -16 0 -1 32 26 54 28 24 59 34 59 20z m-562
-50 c12 -4 22 -10 22 -15 0 -14 -67 -22 -97 -11 l-28 10 25 10 c30 13 47 14
78 6z m330 -14 c7 -11 22 -20 34 -20 20 0 20 -1 4 -19 -11 -13 -15 -27 -11
-40 7 -24 2 -26 -26 -11 -13 8 -25 7 -40 -1 -20 -10 -21 -9 -15 14 5 20 1 29
-16 41 l-22 16 26 0 c18 0 29 7 33 20 3 11 9 20 13 20 4 0 13 -9 20 -20z m341
14 c39 -8 40 -20 1 -29 -54 -12 -123 15 -72 28 27 7 37 7 71 1z m-554 -54
c-18 -20 -81 -38 -92 -26 -15 15 32 46 70 46 39 0 40 0 22 -20z m450 0 c10
-11 15 -23 12 -26 -11 -12 -74 6 -92 26 -18 20 -17 20 22 20 27 0 46 -6 58
-20z"/>
<path d="M3077 2794 c-2 -3 -21 -5 -41 -6 -20 -1 -36 -3 -36 -5 0 -7 28 -33
36 -33 4 0 16 -8 27 -17 11 -10 17 -12 13 -5 -4 7 -1 12 8 12 22 0 20 17 -1
24 -10 2 -4 4 12 3 23 -2 31 -7 33 -24 3 -18 -2 -23 -20 -24 -13 0 -17 -3 -10
-6 8 -3 33 0 57 7 l44 12 -29 25 c-28 23 -84 46 -93 37z"/>
<path d="M3230 2666 c0 -13 -5 -14 -26 -6 -22 9 -19 4 17 -32 40 -39 45 -41
50 -23 5 17 8 14 17 -15 l10 -35 1 30 c1 34 -20 69 -50 85 -15 8 -19 7 -19 -4z"/>
<path d="M3620 2073 l0 -113 45 0 c25 0 45 2 45 4 0 2 -12 29 -26 60 -14 31
-34 80 -44 109 l-19 52 -1 -112z"/>
<path d="M3080 1281 c0 -46 16 -64 26 -27 8 32 2 58 -13 64 -9 2 -13 -9 -13
-37z"/>
<path d="M2068 2663 c-14 -2 -32 -12 -40 -21 -10 -12 -10 -14 0 -8 7 4 40 13
75 21 44 9 52 13 27 13 -19 -1 -47 -3 -62 -5z"/>
</g>
</svg>
